<?xml version="1.0" encoding="UTF-8" standalone="no"?>
<!DOCTYPE svg PUBLIC "-//W3C//DTD SVG 1.1//EN" "http://www.w3.org/Graphics/SVG/1.1/DTD/svg11.dtd">
<svg width="100%" height="100%" viewBox="0 0 366 274" version="1.1" xmlns="http://www.w3.org/2000/svg" xmlns:xlink="http://www.w3.org/1999/xlink" xml:space="preserve" xmlns:serif="http://www.serif.com/" style="fill-rule:evenodd;clip-rule:evenodd;stroke-linejoin:round;stroke-miterlimit:2;">
    <g transform="matrix(1,0,0,1,-1693.23,-2839.75)">
        <g transform="matrix(1,0,0,1,-118.942,-41.5942)">
            <g transform="matrix(2.32261,-3.36585,4.02285,1.94329,-5.39336,2736.82)">
                <path d="M112.234,409.707L121.442,425.655L160.642,425.655L151.434,409.707L112.234,409.707Z" style="fill:rgb(2,15,72);"/>
            </g>
            <g transform="matrix(-2.32261,-3.36585,-4.02285,1.94329,3897.63,2736.82)">
                <path d="M112.234,409.707L121.442,425.655L160.642,425.655L151.434,409.707L112.234,409.707Z" style="fill:rgb(2,15,72);"/>
            </g>
            <g transform="matrix(2.32261,-3.36585,4.02285,1.94329,92.0306,2736.82)">
                <path d="M112.234,409.707L121.442,425.655L160.642,425.655L151.434,409.707L112.234,409.707Z" style="fill:rgb(59,130,246);"/>
            </g>
            <g transform="matrix(2.32261,3.36585,4.02285,-1.94329,-5.39336,3299.76)">
                <path d="M112.234,409.707L121.442,425.655L160.642,425.655L151.434,409.707L112.234,409.707Z" style="fill:rgb(2,15,72);"/>
            </g>
            <g transform="matrix(-2.32261,3.36585,-4.02285,-1.94329,3897.63,3299.76)">
                <path d="M112.234,409.707L121.442,425.655L160.642,425.655L151.434,409.707L112.234,409.707Z" style="fill:rgb(2,15,72);"/>
            </g>
            <g transform="matrix(2.32261,3.36585,4.02285,-1.94329,92.0306,3299.76)">
                <path d="M112.234,409.707L121.442,425.655L160.642,425.655L151.434,409.707L112.234,409.707Z" style="fill:rgb(59,130,246);"/>
            </g>
        </g>
    </g>
</svg>
