<svg xmlns="http://www.w3.org/2000/svg" viewBox="0 0 256 256" fill="none">
  <rect width="256" height="256" rx="48" fill="#0f172a"/>
  <path d="M64 132c0-29.823 24.177-54 54-54h20c29.823 0 54 24.177 54 54v36c0 5.523-4.477 10-10 10h-18.755a14 14 0 0 1-13.584-10.615L145 150h-34l-4.661 17.385A14 14 0 0 1 92.755 178H74c-5.523 0-10-4.477-10-10v-36Z" fill="#38bdf8"/>
  <circle cx="97" cy="132" r="14" fill="#0f172a"/>
  <circle cx="159" cy="132" r="14" fill="#0f172a"/>
  <path d="M108 96h40l11 22H97l11-22Z" fill="#e2e8f0"/>
</svg>
